<svg viewBox="0 0 200 200" xmlns="http://www.w3.org/2000/svg">
  <path fill="#BAE6FF" d="M43.3,-73.7C56.9,-67.1,69.3,-57.1,76.1,-44.3C82.9,-31.5,84.1,-15.7,83,-0.6C81.9,14.5,78.7,29,71.4,40.9C64,52.8,52.6,62.1,40.1,67.7C27.5,73.2,13.8,75,-1.1,76.8C-15.9,78.6,-31.8,80.6,-45.5,75.7C-59.3,70.9,-70.9,59.3,-76.8,45.5C-82.7,31.8,-82.8,15.9,-82,0.5C-81.2,-15,-79.6,-30,-72,-40.9C-64.5,-51.8,-51.1,-58.6,-38.1,-65.5C-25.2,-72.5,-12.6,-79.6,1.1,-81.5C14.8,-83.5,29.6,-80.2,43.3,-73.7Z" transform="translate(100 100)" />
</svg>