<svg xmlns="http://www.w3.org/2000/svg" viewBox="0 0 1440 320"><path fill="#e0e0e0" fill-opacity="1" d="M0,32L26.7,80C53.3,128,107,224,160,256C213.3,288,267,256,320,234.7C373.3,213,427,203,480,197.3C533.3,192,587,192,640,176C693.3,160,747,128,800,106.7C853.3,85,907,75,960,90.7C1013.3,107,1067,149,1120,170.7C1173.3,192,1227,192,1280,176C1333.3,160,1387,128,1413,112L1440,96L1440,320L1413.3,320C1386.7,320,1333,320,1280,320C1226.7,320,1173,320,1120,320C1066.7,320,1013,320,960,320C906.7,320,853,320,800,320C746.7,320,693,320,640,320C586.7,320,533,320,480,320C426.7,320,373,320,320,320C266.7,320,213,320,160,320C106.7,320,53,320,27,320L0,320Z"></path></svg>